<svg width="2218" height="864" viewBox="0 0 2218 864" fill="none" xmlns="http://www.w3.org/2000/svg">
<mask id="mask0_5190_11598" style="mask-type:luminance" maskUnits="userSpaceOnUse" x="108" y="95" width="586" height="485">
<path d="M108.043 95.793H693.643V579.633H108.043V95.793Z" fill="white"/>
</mask>
<g mask="url(#mask0_5190_11598)">
<mask id="mask1_5190_11598" style="mask-type:luminance" maskUnits="userSpaceOnUse" x="113" y="96" width="576" height="483">
<path d="M113.347 388.605C125.075 176.584 438.52 -43.3018 688.835 209.648L602.206 285.252C519.647 207.539 270.693 163.778 237.433 435.28C233.304 477.712 239.904 559.561 273.811 570.62L283.47 572.566C297.296 577.149 316.53 583.606 282.937 572.559C226.106 585.146 118.743 533.404 113.347 388.605Z" fill="white"/>
</mask>
<g mask="url(#mask1_5190_11598)">
<path d="M109.748 583.556V93.3789H692.221V583.556H109.748Z" fill="url(#paint0_linear_5190_11598)"/>
</g>
</g>
<mask id="mask2_5190_11598" style="mask-type:luminance" maskUnits="userSpaceOnUse" x="101" y="93" width="622" height="518">
<path d="M101.764 93.3789H722.441V610.354H101.764V93.3789Z" fill="white"/>
</mask>
<g mask="url(#mask2_5190_11598)">
<path d="M110.404 386.056C125.464 201.588 396.933 -52.0636 684.244 204.255L601.795 281.296C543.469 233.776 288.244 140.176 241.037 424.936C233.498 470.407 240.724 560.688 279.923 572.924C313.969 583.552 294.602 577.334 280.665 572.924C240.498 578.234 150.834 547.606 110.404 386.056Z" stroke="#FF9558" stroke-width="6.0336"/>
</g>
<mask id="mask3_5190_11598" style="mask-type:luminance" maskUnits="userSpaceOnUse" x="104" y="385" width="452" height="301">
<path d="M104.205 385.711H555.405V685.231H104.205V385.711Z" fill="white"/>
</mask>
<g mask="url(#mask3_5190_11598)">
<mask id="mask4_5190_11598" style="mask-type:luminance" maskUnits="userSpaceOnUse" x="104" y="386" width="451" height="299">
<path d="M554.718 474.604L440.35 471.949C411.093 513.559 331.3 592.047 246.19 572.922C161.08 553.789 118.525 440.967 107.883 386.922C84.4827 522.964 185.92 642.904 238.21 684.514C414.813 665.389 523.653 536.622 554.718 474.604Z" fill="white"/>
</mask>
<g mask="url(#mask4_5190_11598)">
<path d="M101.771 684.514V386.922H554.719V684.514H101.771Z" fill="url(#paint1_linear_5190_11598)"/>
</g>
</g>
<mask id="mask5_5190_11598" style="mask-type:luminance" maskUnits="userSpaceOnUse" x="101" y="354" width="486" height="362">
<path d="M101.764 354.992H586.121V715.952H101.764V354.992Z" fill="white"/>
</mask>
<g mask="url(#mask5_5190_11598)">
<path d="M554.714 474.609L440.347 471.954C411.089 513.564 331.297 592.052 246.187 572.927C161.077 553.794 120.486 440.592 109.844 386.547C86.4437 522.589 185.917 642.909 238.207 684.519C414.809 665.394 523.649 536.627 554.714 474.609Z" stroke="#FB6F40" stroke-width="5.31682"/>
</g>
<mask id="mask6_5190_11598" style="mask-type:luminance" maskUnits="userSpaceOnUse" x="242" y="216" width="542" height="518">
<path d="M242.445 216.75H783.885V733.23H242.445V216.75Z" fill="white"/>
</mask>
<g mask="url(#mask6_5190_11598)">
<mask id="mask7_5190_11598" style="mask-type:luminance" maskUnits="userSpaceOnUse" x="242" y="216" width="541" height="517">
<path d="M647.014 344.409C591.687 582.489 354.439 672.136 242.734 687.181C268.017 703.816 294.612 717.991 322.527 729.691C554.449 763.704 702.867 522.436 748.077 397.554L777.334 426.781L782.659 216.871L604.452 312.526L647.014 344.409Z" fill="white"/>
</mask>
<g mask="url(#mask7_5190_11598)">
<path d="M242.734 763.704V216.871H782.659V763.704H242.734Z" fill="url(#paint2_linear_5190_11598)"/>
</g>
</g>
<path d="M770.928 423.404L749.339 401.958L747.738 400.368L746.97 402.489C724.427 464.759 674.805 554.742 601.919 624.884C529.085 694.975 433.161 745.134 317.864 728.292C291.271 717.134 265.882 703.722 241.686 688.07C297.86 679.875 383.854 653.762 463.104 600.937C544.188 546.888 618.28 464.828 646.047 345.346L646.264 344.41L645.484 343.851L602.115 312.702L776.105 219.312L770.928 423.404Z" stroke="#FF9558" stroke-width="2.88"/>
<mask id="mask8_5190_11598" style="mask-type:luminance" maskUnits="userSpaceOnUse" x="321" y="401" width="492" height="396">
<path d="M321.16 401.07H812.68V796.59H321.16V401.07Z" fill="white"/>
</mask>
<g mask="url(#mask8_5190_11598)">
<mask id="mask9_5190_11598" style="mask-type:luminance" maskUnits="userSpaceOnUse" x="321" y="397" width="494" height="403">
<path d="M612.813 613.811C517.784 720.281 383.232 736.165 324.579 730.733C323.81 730.662 323.537 731.697 324.206 732.084C429.44 793.011 572.725 741.744 621.603 702.498L711.753 795.506L810.753 719.568L703.683 618.978C748.683 547.698 772.083 458.418 767.763 427.458C765.257 409.496 756.004 405.8 748.587 400.465C748.141 400.145 747.511 400.363 747.419 400.904C742.892 427.425 708.131 506.967 612.813 613.811Z" fill="white" stroke="white" stroke-width="5.31682"/>
</mask>
<g mask="url(#mask9_5190_11598)">
<path d="M322.52 796.119V402.871H811.91V796.119H322.52Z" fill="url(#paint3_linear_5190_11598)"/>
</g>
</g>
<mask id="mask10_5190_11598" style="mask-type:luminance" maskUnits="userSpaceOnUse" x="290" y="372" width="525" height="429">
<path d="M290.922 372.27H814.564V800.415H290.922V372.27Z" fill="white"/>
</mask>
<g mask="url(#mask10_5190_11598)">
<path d="M612.813 613.811C517.784 720.281 383.232 736.165 324.579 730.733C323.81 730.662 323.537 731.697 324.206 732.084C429.44 793.011 572.725 741.744 621.603 702.498L711.753 795.506L810.753 719.568L703.683 618.978C748.683 547.698 772.083 458.418 767.763 427.458C765.257 409.496 756.004 405.8 748.587 400.465C748.141 400.145 747.511 400.363 747.419 400.904C742.892 427.425 708.131 506.967 612.813 613.811Z" stroke="#FBAF40" stroke-width="5.31682"/>
</g>
<path d="M900.883 424.54H980.953V452.335H900.883V501.295V550H874.363V357.73H988.093V385.27H900.883V424.54ZM1156.9 524.245C1138.54 543.37 1116.86 552.805 1091.36 552.805C1065.61 552.805 1043.68 543.37 1025.83 524.245C1007.47 505.375 998.542 481.915 998.542 454.12C998.542 426.58 1007.47 403.375 1025.83 383.995C1043.68 364.615 1065.61 354.67 1091.36 354.415C1116.86 354.415 1138.54 364.36 1156.9 383.995C1175 403.12 1184.18 426.58 1184.18 454.12C1184.18 481.915 1175 505.375 1156.9 524.245ZM1138.03 504.61C1151.03 490.84 1157.66 474.01 1157.66 454.12C1157.66 434.23 1151.03 417.145 1138.03 403.12C1125.02 389.35 1109.47 382.21 1091.36 382.21C1073 382.21 1057.19 389.35 1044.44 403.12C1031.44 417.145 1025.06 434.23 1025.06 454.12C1025.06 474.265 1031.44 491.095 1044.44 504.61C1057.19 518.89 1073 526.03 1091.36 526.03C1109.21 526.03 1124.77 518.89 1138.03 504.61ZM1194.61 357.73H1212.71H1231.07C1246.37 357.73 1259.89 363.34 1271.87 374.56C1283.09 386.035 1288.7 399.805 1288.7 415.87C1288.7 433.21 1282.33 447.49 1269.58 458.965C1279.27 472.735 1289.47 486.505 1299.67 500.275C1309.87 514.045 1320.07 527.815 1330.27 541.075C1325.68 542.605 1321.09 543.88 1316.5 545.41C1311.91 546.94 1307.32 548.215 1302.98 549.745C1290.23 533.425 1277.48 517.105 1264.99 500.53C1252.49 483.955 1240 467.38 1227.5 450.805C1232.35 448.765 1236.68 446.98 1240.51 445.45C1244.33 443.92 1247.9 441.88 1250.96 438.82C1258.1 432.7 1261.42 425.05 1261.42 415.87C1261.42 407.71 1258.36 400.315 1252.24 394.195C1246.12 388.33 1239.23 385.27 1231.07 385.27H1226.23H1221.89V467.89V550H1208.12H1194.61V454.12V357.73ZM1364.59 424.54H1451.03V452.335H1364.59V522.46H1448.48V550H1337.05V357.73H1451.03V385.27H1364.59V424.54ZM1619.83 524.245C1601.47 543.37 1579.8 552.805 1554.3 552.805C1528.54 552.805 1506.61 543.37 1488.76 524.245C1470.4 505.375 1461.48 481.915 1461.48 454.12C1461.48 426.58 1470.4 403.375 1488.76 383.995C1506.61 364.615 1528.54 354.67 1554.3 354.415C1579.8 354.415 1601.47 364.36 1619.83 383.995C1637.94 403.12 1647.12 426.58 1647.12 454.12C1647.12 481.915 1637.94 505.375 1619.83 524.245ZM1602.49 503.335C1614.48 489.565 1620.6 473.245 1620.6 454.12C1620.6 434.23 1613.97 417.145 1600.96 403.12C1587.96 389.35 1572.4 382.21 1554.3 382.21C1535.94 382.21 1520.13 389.35 1507.38 403.12C1494.37 417.145 1488 434.23 1488 454.12C1488 474.265 1494.37 491.095 1507.38 504.61C1520.13 518.89 1535.94 526.03 1554.3 526.03C1562.97 526.03 1571.64 523.99 1580.82 519.91L1535.43 473.5L1555.06 454.63L1602.49 503.335ZM1652.19 550L1731.75 357.73H1743.99L1823.55 550H1794.48L1778.16 510.73H1697.07L1681.26 550H1652.19ZM1767.19 484.21L1737.87 412.81L1708.54 484.21H1767.19ZM1943.03 494.155C1943.03 510.73 1937.42 524.5 1926.45 535.72C1914.98 547.195 1901.46 552.805 1886.16 552.805C1870.35 552.805 1856.58 547.195 1845.36 535.72C1834.14 524.5 1828.79 510.475 1828.79 494.155H1854.29C1854.29 503.335 1857.35 510.985 1863.72 517.105C1869.59 523.735 1876.98 526.795 1886.16 526.54C1894.58 526.54 1901.97 523.48 1908.35 517.105C1914.47 510.73 1917.53 503.08 1917.53 494.155C1917.53 485.485 1914.47 477.835 1908.35 470.95C1901.21 464.065 1893.05 460.495 1883.36 460.495H1880.04C1879.02 460.495 1878.26 460.75 1877.75 460.75C1867.55 460.75 1857.6 455.905 1848.17 445.96C1837.97 435.76 1832.87 423.01 1833.12 407.965C1833.12 393.685 1837.97 381.19 1848.17 370.48C1857.86 360.28 1870.1 354.925 1884.63 354.925C1893.05 354.925 1900.95 356.965 1908.35 361.045C1915.49 365.125 1921.61 370.225 1926.45 376.855C1930.02 381.955 1932.83 387.565 1934.61 394.195L1909.88 401.335C1909.11 399.04 1907.84 395.98 1906.05 392.41C1900.44 385.015 1893.3 381.19 1884.63 381.19C1877.49 381.19 1871.37 383.74 1866.27 388.84C1861.17 394.45 1858.88 400.825 1858.88 407.965C1858.88 415.615 1861.17 421.99 1866.27 427.09C1872.65 433.975 1880.55 437.29 1890.24 437.29H1893.56C1894.32 437.29 1895.09 437.29 1895.85 437.035C1906.05 437.035 1916.25 442.135 1926.45 452.335C1937.42 464.065 1943.03 477.835 1943.03 494.155ZM1948.28 357.73H2013.05H2078.33V371.755V385.015H2024.52V550H2011.01H1997.49V385.015H1948.28V371.755V357.73Z" fill="black"/>
<defs>
<linearGradient id="paint0_linear_5190_11598" x1="692.163" y1="181.219" x2="25.4434" y2="491.899" gradientUnits="userSpaceOnUse">
<stop stop-color="#FBAF40" stop-opacity="0.4"/>
<stop offset="0.858929" stop-color="#FB6F40"/>
</linearGradient>
<linearGradient id="paint1_linear_5190_11598" x1="535.563" y1="500.896" x2="115.443" y2="498.736" gradientUnits="userSpaceOnUse">
<stop stop-color="#FBAF40"/>
<stop offset="1" stop-color="#FB6F40"/>
</linearGradient>
<linearGradient id="paint2_linear_5190_11598" x1="732.123" y1="246.74" x2="242.883" y2="692.42" gradientUnits="userSpaceOnUse">
<stop stop-color="#FBAF40"/>
<stop offset="1" stop-color="#F47950"/>
</linearGradient>
<linearGradient id="paint3_linear_5190_11598" x1="363.844" y1="402.978" x2="708.364" y2="823.098" gradientUnits="userSpaceOnUse">
<stop stop-color="#D9BC93"/>
<stop offset="1" stop-color="#FB6F40"/>
</linearGradient>
</defs>
</svg>
