<svg width="1168" height="973" viewBox="0 0 1168 973" fill="none" xmlns="http://www.w3.org/2000/svg">
<g clip-path="url(#clip0_5190_11112)">
<mask id="mask0_5190_11112" style="mask-type:luminance" maskUnits="userSpaceOnUse" x="262" y="177" width="644" height="575">
<path d="M905.2 177H262V751.4H905.2V177Z" fill="white"/>
</mask>
<g mask="url(#mask0_5190_11112)">
<mask id="mask1_5190_11112" style="mask-type:luminance" maskUnits="userSpaceOnUse" x="302" y="385" width="136" height="253">
<path d="M302.918 385H437.202V637.8H302.918V385Z" fill="white"/>
</mask>
<g mask="url(#mask1_5190_11112)">
<path d="M305.573 443.035C310.783 397.966 339.914 385.973 353.827 385.613H357.808L360.461 385.732L363.236 385.973L366.736 386.576L369.752 387.179L372.405 387.782L375.302 388.629L379.28 389.835L380.848 390.438L383.261 391.282L384.467 391.763L387.002 392.729L388.933 393.454L390.502 394.176L391.586 394.66L392.914 395.263L395.086 396.229L396.895 397.073L399.667 398.52L399.548 399.485L399.308 406.845L397.98 430.126L396.048 465.473L394.842 490.929L393.517 511.076L393.033 527.238L392.43 538.579L393.033 548.832C395.808 569.223 417.283 576.22 421.505 577.785C424.883 579.041 433.367 578.71 437.186 578.388C435.539 584.02 429.877 597.426 420.417 606.016C410.961 614.604 380.689 630.263 366.736 637.02C319.155 636.054 304.445 599.138 303.039 580.801L304.367 512.16L305.573 443.035Z" fill="#49B4B8"/>
</g>
<mask id="mask2_5190_11112" style="mask-type:luminance" maskUnits="userSpaceOnUse" x="302" y="384" width="137" height="254">
<path d="M302.918 384.199H438.802V637.874H302.918V384.199Z" fill="white"/>
</mask>
<g mask="url(#mask2_5190_11112)">
<path d="M305.573 443.035C310.783 397.966 339.914 385.973 353.827 385.613H357.808L360.461 385.732L363.236 385.973L366.736 386.576L369.752 387.179L372.405 387.782L375.302 388.629L379.28 389.835L380.848 390.438L383.261 391.282L384.467 391.763L387.002 392.729L388.933 393.454L390.502 394.176L391.586 394.66L392.914 395.263L395.086 396.229L396.895 397.073L399.667 398.52L399.548 399.485L399.308 406.845L397.98 430.126L396.048 465.473L394.842 490.929L393.517 511.076L393.033 527.238L392.43 538.579L393.033 548.832C395.808 569.223 417.283 576.22 421.505 577.785C424.883 579.042 433.367 578.71 437.186 578.388C435.539 584.02 429.877 597.426 420.417 606.017C410.961 614.604 380.689 630.263 366.736 637.02C319.155 636.054 304.445 599.138 303.039 580.801L304.367 512.16L305.573 443.035Z" stroke="black" stroke-width="0.241274"/>
</g>
<path d="M509.084 422.886L512.584 421.317C498.203 381.845 468.631 374.47 455.644 375.717L353.703 385.611H357.806C372.669 385.611 393.031 394.78 401.356 399.364L410.403 406.361L411.247 406.842L416.797 410.22L424.034 414.08L431.634 417.58L436.703 419.63L443.578 422.042L448.044 423.37L452.144 424.455L455.644 425.299L459.141 425.902L462.397 426.505L465.294 426.867L468.309 427.23L473.134 427.592L477.478 427.711H481.459L485.803 427.47L489.059 427.23L491.953 426.989L497.022 426.142L505.466 424.092L509.084 422.886Z" fill="#52C4C9" stroke="#BD4B83" stroke-width="0.241274"/>
<path d="M512.584 421.319L518.252 434.953C469.612 434.953 453.19 472.269 451.059 490.928L434.168 453.047L427.534 437.606C422.418 421.584 413.984 410.1 410.402 406.359C456.343 435.7 497.665 428.559 512.584 421.319Z" fill="#57D7DB" stroke="#B54499" stroke-width="0.241274"/>
<mask id="mask3_5190_11112" style="mask-type:luminance" maskUnits="userSpaceOnUse" x="718" y="385" width="132" height="253">
<path d="M718 385H849.884V637.8H718V385Z" fill="white"/>
</mask>
<g mask="url(#mask3_5190_11112)">
<path d="M849.763 573.563C848.51 631.373 798.573 640.113 773.763 637.26C734.291 624.038 720.32 592.263 718.27 578.029C746.257 582.179 758.241 558.766 760.735 546.541L759.888 530.135L759.407 516.02L757.113 475.97L756.51 460.888L755.548 449.791L754.945 433.988L754.46 422.888L753.979 411.91L753.616 405.035L753.376 401.657L753.132 398.401L754.945 397.313L756.873 396.348L759.888 394.779L761.698 393.935L765.198 392.248L769.42 390.557L776.054 388.266L781.001 386.938L785.345 386.095L789.204 385.491L793.185 385.129H798.373C834.757 386.77 847.31 430.126 849.038 451.601V480.07L849.401 512.885V562.707L849.763 573.563Z" fill="#49B4B8"/>
</g>
<mask id="mask4_5190_11112" style="mask-type:luminance" maskUnits="userSpaceOnUse" x="716" y="383" width="134" height="255">
<path d="M716.402 383.398H849.887V637.873H716.402V383.398Z" fill="white"/>
</mask>
<g mask="url(#mask4_5190_11112)">
<path d="M849.763 573.563C848.51 631.373 798.573 640.113 773.763 637.26C734.291 624.038 720.32 592.263 718.27 578.029C746.257 582.179 758.241 558.766 760.735 546.541L759.888 530.135L759.407 516.02L757.113 475.97L756.51 460.888L755.548 449.791L754.945 433.988L754.46 422.888L753.979 411.91L753.616 405.035L753.376 401.657L753.132 398.401L754.945 397.313L756.873 396.348L759.888 394.779L761.698 393.935L765.198 392.248L769.42 390.557L776.054 388.266L781.001 386.938L785.345 386.095L789.204 385.491L793.185 385.129H798.373C834.757 386.77 847.31 430.126 849.038 451.601V480.07L849.401 512.885V562.707L849.763 573.563Z" stroke="black" stroke-width="0.241274"/>
</g>
<path d="M640.698 420.837L634.305 436.277C680.917 437.437 698.845 473.918 701.98 492.012L709.098 475.727L728.402 431.452C731.102 421.415 740.223 409.496 744.445 404.793C702.848 435.965 657.948 428.477 640.698 420.837Z" fill="#57D7DB" stroke="#57D7DB" stroke-width="0.241274"/>
<path d="M766.402 391.643C751.055 398.205 745.29 403.224 744.324 404.912L743.48 405.396L741.671 406.721L738.052 409.134L736.002 410.462L733.346 412.03L729.609 414.202L725.868 416.13L719.596 418.905L716.58 420.234L711.874 421.802L707.652 423.127L703.19 424.334L699.568 425.18L695.105 426.024L683.646 427.23L679.302 427.471L675.562 427.593L668.202 427.109L663.015 426.627L657.346 425.662L648.418 423.49L643.834 422.043L640.699 420.837C653.63 386.093 681.552 376.04 693.899 375.355L797.271 385.015C797.73 385.043 798.14 385.08 798.49 385.127L797.271 385.015C792.127 384.69 780.487 385.618 766.402 391.643Z" fill="#52C4C9"/>
<path d="M744.324 404.912C745.29 403.224 751.056 398.205 766.402 391.643C781.746 385.08 794.19 384.565 798.49 385.127L693.899 375.355C681.552 376.04 653.63 386.093 640.699 420.837L643.834 422.043L648.418 423.49L657.346 425.662L663.015 426.627L668.202 427.109L675.562 427.593L679.302 427.471L683.646 427.23L695.105 426.024L699.568 425.18L703.19 424.334L707.652 423.127L711.874 421.802L716.581 420.234L719.596 418.905L725.868 416.13L729.609 414.202L733.346 412.03L736.002 410.462L738.052 409.134L741.671 406.721L743.481 405.396L744.324 404.912Z" stroke="#59D6DB" stroke-width="0.241274"/>
<mask id="mask5_5190_11112" style="mask-type:luminance" maskUnits="userSpaceOnUse" x="366" y="434" width="208" height="204">
<path d="M366 434.598H573.2V637.798H366V434.598Z" fill="white"/>
</mask>
<g mask="url(#mask5_5190_11112)">
<mask id="mask6_5190_11112" style="mask-type:luminance" maskUnits="userSpaceOnUse" x="366" y="434" width="208" height="204">
<path d="M376.262 632.312L366.734 637.019C387.803 637.581 440.537 638.006 482.906 635.209C525.275 632.409 539.163 598.734 540.812 582.25L545.759 561.5L549.859 545.938L556.012 522.412L562.647 494.547L565.663 483.688L569.281 469.816L573.022 452.566C568.294 446.678 541.534 439.013 528.747 435.916L518.131 434.953L514.753 435.072L510.05 435.312L505.103 435.916L500.278 436.881L495.934 437.969L492.678 439.053L487.009 441.225L481.338 444.241L475.669 448.1L470.722 452.322L467.103 456.062L464.569 459.078L461.916 462.697L459.744 466.197L457.812 469.694L456.125 473.072L454.678 476.572L452.988 481.638L452.144 484.894L451.419 488.031L451.178 490.806C451.759 493.413 451.419 496.878 451.178 498.288L447.319 520.363L443.941 542.197L440.322 563.913L438.028 575.975L437.184 578.509L436.703 579.956L434.531 585.628L432.359 589.969L429.947 594.312L426.088 599.863L423.916 602.516L420.175 606.375L415.953 609.512L411.491 612.65L405.819 616.147L396.409 621.578L390.016 625.075L383.622 628.453L376.262 632.312Z" fill="white"/>
</mask>
<g mask="url(#mask6_5190_11112)">
<path d="M366.734 434.953V637.875H573.022V434.953H366.734Z" fill="url(#paint0_linear_5190_11112)"/>
</g>
</g>
<mask id="mask7_5190_11112" style="mask-type:luminance" maskUnits="userSpaceOnUse" x="365" y="433" width="210" height="205">
<path d="M365.203 433H574.803V637.875H365.203V433Z" fill="white"/>
</mask>
<g mask="url(#mask7_5190_11112)">
<path d="M376.266 632.313L366.738 637.019C387.807 637.581 440.541 638.006 482.91 635.209C525.279 632.409 539.166 598.734 540.817 582.25L545.763 561.5L549.863 545.938L556.017 522.413L562.651 494.547L565.667 483.688L569.285 469.816L573.026 452.566C568.298 446.678 541.538 439.013 528.751 435.916L518.135 434.953L514.757 435.072L510.054 435.313L505.107 435.916L500.282 436.881L495.938 437.969L492.682 439.053L487.013 441.225L481.341 444.241L475.673 448.1L470.726 452.322L467.107 456.063L464.573 459.078L461.92 462.697L459.748 466.197L457.816 469.694L456.129 473.072L454.682 476.572L452.991 481.638L452.148 484.894L451.423 488.031L451.182 490.806C451.763 493.413 451.423 496.878 451.182 498.288L447.323 520.363L443.945 542.197L440.326 563.913L438.032 575.975L437.188 578.509L436.707 579.956L434.535 585.628L432.363 589.969L429.951 594.313L426.091 599.863L423.92 602.516L420.179 606.375L415.957 609.513L411.495 612.65L405.823 616.147L396.413 621.578L390.02 625.075L383.626 628.453L376.266 632.313Z" stroke="#1EAEE5" stroke-width="0.241274"/>
</g>
<mask id="mask8_5190_11112" style="mask-type:luminance" maskUnits="userSpaceOnUse" x="528" y="435" width="245" height="203">
<path d="M528.402 435.402H772.402V637.002H528.402V435.402Z" fill="white"/>
</mask>
<g mask="url(#mask8_5190_11112)">
<mask id="mask9_5190_11112" style="mask-type:luminance" maskUnits="userSpaceOnUse" x="528" y="435" width="244" height="202">
<path d="M666.277 636.656H771.712L770.627 636.294L767.249 634.969L763.509 633.278L759.771 631.469L753.98 628.091L751.205 626.281L749.155 624.834L745.655 622.181L743.724 620.613L741.312 618.441L739.384 616.631L735.28 612.288L733.23 609.753L730.215 605.772L728.284 603L726.837 600.706L725.39 598.172L723.699 594.797L721.89 590.934L719.84 585.144L719.355 583.697L718.996 582.128L718.634 580.559L718.149 578.147L701.865 492.134L701.38 489.841L698.968 481.878L697.643 478.259L694.746 472.35L692.937 469.213L691.612 467.163L690.043 464.75L688.474 462.697L686.543 460.284L684.855 458.356L681.115 454.616L678.824 452.566L676.652 450.756L674.48 449.066L672.912 447.981L670.74 446.534L668.449 445.206C668.159 444.916 663.421 442.753 661.09 441.706L656.265 439.897L652.524 438.812L648.302 437.847L645.768 437.366L639.134 436.519L634.427 436.278L528.871 435.797L530.318 436.159L537.074 437.969L549.018 441.466L558.427 444.722L564.58 447.256L566.63 448.222L569.043 449.55L570.249 450.272L571.577 451.116L573.024 452.566C588.562 461.541 596.549 483.487 598.599 493.341L601.012 505.888L606.077 526.634L612.593 555.95L616.093 571.391C621.496 617.522 651.799 634.122 666.277 636.656Z" fill="white"/>
</mask>
<g mask="url(#mask9_5190_11112)">
<path d="M528.871 435.797V636.656H771.712V435.797H528.871Z" fill="url(#paint1_linear_5190_11112)"/>
</g>
</g>
<mask id="mask10_5190_11112" style="mask-type:luminance" maskUnits="userSpaceOnUse" x="526" y="433" width="248" height="205">
<path d="M526.801 433.801H773.201V637.876H526.801V433.801Z" fill="white"/>
</mask>
<g mask="url(#mask10_5190_11112)">
<path d="M666.277 636.656H771.712L770.627 636.294L767.249 634.969L763.509 633.278L759.771 631.469L753.981 628.091L751.206 626.281L749.156 624.834L745.656 622.181L743.724 620.613L741.312 618.441L739.384 616.631L735.281 612.288L733.231 609.753L730.215 605.772L728.284 603L726.837 600.706L725.39 598.172L723.699 594.797L721.89 590.934L719.84 585.144L719.356 583.697L718.996 582.128L718.634 580.559L718.149 578.147L701.865 492.134L701.381 489.841L698.968 481.878L697.643 478.259L694.746 472.35L692.937 469.213L691.612 467.163L690.043 464.75L688.474 462.697L686.543 460.284L684.856 458.356L681.115 454.616L678.824 452.566L676.652 450.756L674.481 449.066L672.912 447.981L670.74 446.534L668.449 445.206C668.159 444.916 663.421 442.753 661.09 441.706L656.265 439.897L652.524 438.813L648.302 437.847L645.768 437.366L639.134 436.519L634.427 436.278L528.871 435.797L530.318 436.159L537.074 437.969L549.018 441.466L558.427 444.722L564.58 447.256L566.63 448.222L569.043 449.55L570.249 450.272L571.577 451.116L573.024 452.566C588.562 461.541 596.549 483.488 598.599 493.341L601.012 505.888L606.077 526.634L612.593 555.95L616.093 571.391C621.496 617.522 651.799 634.122 666.277 636.656Z" stroke="black" stroke-width="0.241274"/>
</g>
<path d="M615.971 571.029C594.159 582.32 558.065 577.982 542.746 574.404L562.649 494.785L598.84 494.907L615.971 571.029Z" fill="#57D7DB" stroke="black" stroke-width="0.241274"/>
<mask id="mask11_5190_11112" style="mask-type:luminance" maskUnits="userSpaceOnUse" x="322" y="177" width="126" height="139">
<path d="M322 177.742H447.6V315.402H322V177.742Z" fill="white"/>
</mask>
<g mask="url(#mask11_5190_11112)">
<mask id="mask12_5190_11112" style="mask-type:luminance" maskUnits="userSpaceOnUse" x="322" y="177" width="126" height="139">
<path d="M447.562 246.398C447.562 247.52 447.537 248.645 447.487 249.766C447.437 250.888 447.362 252.007 447.262 253.126C447.162 254.245 447.034 255.357 446.884 256.47C446.734 257.579 446.559 258.688 446.359 259.788C446.159 260.891 445.934 261.985 445.687 263.076C445.437 264.166 445.165 265.248 444.865 266.323C444.568 267.398 444.246 268.463 443.902 269.523C443.559 270.579 443.19 271.629 442.796 272.666C442.405 273.704 441.99 274.729 441.552 275.745C441.112 276.76 440.652 277.763 440.168 278.754C439.687 279.745 439.18 280.723 438.655 281.685C438.127 282.651 437.58 283.598 437.012 284.532C436.44 285.466 435.852 286.385 435.24 287.288C434.63 288.188 433.999 289.076 433.349 289.945C432.699 290.813 432.03 291.663 431.343 292.495C430.655 293.326 429.949 294.141 429.224 294.935C428.499 295.729 427.759 296.504 426.999 297.257C426.24 298.013 425.465 298.745 424.671 299.457C423.88 300.173 423.071 300.863 422.249 301.532C421.424 302.201 420.587 302.848 419.737 303.473C418.884 304.095 418.018 304.698 417.14 305.273C416.262 305.851 415.371 306.404 414.465 306.935C413.562 307.463 412.646 307.97 411.721 308.448C410.796 308.929 409.859 309.385 408.912 309.813C407.965 310.245 407.009 310.648 406.046 311.026C405.08 311.404 404.109 311.757 403.127 312.085C402.146 312.41 401.159 312.71 400.165 312.982C399.171 313.254 398.171 313.501 397.168 313.72C396.162 313.938 395.152 314.132 394.14 314.298C393.124 314.46 392.109 314.598 391.09 314.71C390.068 314.82 389.046 314.901 388.024 314.957C386.999 315.013 385.977 315.038 384.952 315.038C383.927 315.038 382.902 315.013 381.88 314.957C380.855 314.901 379.834 314.82 378.815 314.71C377.796 314.598 376.777 314.46 375.765 314.298C374.752 314.132 373.743 313.938 372.737 313.72C371.734 313.501 370.734 313.254 369.74 312.982C368.746 312.71 367.759 312.41 366.777 312.085C365.796 311.757 364.824 311.404 363.859 311.026C362.893 310.648 361.94 310.245 360.993 309.813C360.046 309.385 359.109 308.929 358.184 308.448C357.255 307.97 356.34 307.463 355.437 306.935C354.534 306.404 353.643 305.851 352.765 305.273C351.884 304.698 351.018 304.095 350.168 303.473C349.315 302.848 348.477 302.201 347.655 301.532C346.83 300.863 346.024 300.173 345.234 299.457C344.44 298.745 343.665 298.013 342.905 297.257C342.146 296.504 341.405 295.729 340.68 294.935C339.955 294.141 339.249 293.326 338.562 292.495C337.871 291.663 337.202 290.813 336.552 289.945C335.902 289.076 335.274 288.188 334.662 287.288C334.052 286.385 333.462 285.466 332.893 284.532C332.324 283.598 331.774 282.651 331.249 281.685C330.721 280.723 330.218 279.745 329.734 278.754C329.252 277.763 328.79 276.76 328.352 275.745C327.915 274.729 327.499 273.704 327.109 272.666C326.715 271.629 326.346 270.579 326.002 269.523C325.655 268.463 325.334 267.398 325.037 266.323C324.74 265.248 324.468 264.166 324.218 263.076C323.968 261.985 323.743 260.891 323.543 259.788C323.343 258.688 323.168 257.579 323.018 256.47C322.868 255.357 322.743 254.245 322.643 253.126C322.543 252.007 322.468 250.888 322.418 249.766C322.368 248.645 322.34 247.52 322.34 246.398C322.34 245.273 322.368 244.151 322.418 243.029C322.468 241.907 322.543 240.788 322.643 239.67C322.743 238.551 322.868 237.435 323.018 236.326C323.168 235.213 323.343 234.107 323.543 233.007C323.743 231.904 323.968 230.807 324.218 229.72C324.468 228.629 324.74 227.548 325.037 226.473C325.334 225.398 325.655 224.329 326.002 223.273C326.346 222.213 326.715 221.166 327.109 220.129C327.499 219.091 327.915 218.063 328.352 217.048C328.79 216.032 329.252 215.029 329.734 214.038C330.218 213.048 330.721 212.073 331.249 211.107C331.774 210.145 332.324 209.195 332.893 208.26C333.462 207.329 334.052 206.41 334.662 205.507C335.274 204.604 335.902 203.72 336.552 202.851C337.202 201.982 337.871 201.132 338.562 200.301C339.249 199.466 339.955 198.654 340.68 197.86C341.405 197.066 342.146 196.291 342.905 195.535C343.665 194.782 344.44 194.048 345.234 193.335C346.024 192.623 346.83 191.932 347.655 191.263C348.477 190.595 349.315 189.948 350.168 189.323C351.018 188.698 351.884 188.098 352.765 187.52C353.643 186.945 354.534 186.388 355.437 185.86C356.34 185.332 357.255 184.826 358.184 184.345C359.109 183.866 360.046 183.41 360.993 182.979C361.94 182.551 362.893 182.145 363.859 181.766C364.824 181.388 365.796 181.038 366.777 180.71C367.759 180.385 368.746 180.085 369.74 179.813C370.734 179.538 371.734 179.295 372.737 179.073C373.743 178.854 374.752 178.663 375.765 178.498C376.777 178.332 377.796 178.195 378.815 178.085C379.834 177.976 380.855 177.891 381.88 177.838C382.902 177.782 383.927 177.754 384.952 177.754C385.977 177.754 386.999 177.782 388.024 177.838C389.046 177.891 390.068 177.976 391.09 178.085C392.109 178.195 393.124 178.332 394.14 178.498C395.152 178.663 396.162 178.854 397.168 179.073C398.171 179.295 399.171 179.538 400.165 179.813C401.159 180.085 402.146 180.385 403.127 180.71C404.109 181.038 405.08 181.388 406.046 181.766C407.009 182.145 407.965 182.551 408.912 182.979C409.859 183.41 410.796 183.866 411.721 184.345C412.646 184.826 413.562 185.332 414.465 185.86C415.371 186.388 416.262 186.945 417.14 187.52C418.018 188.098 418.884 188.698 419.737 189.323C420.587 189.948 421.424 190.595 422.249 191.263C423.071 191.932 423.88 192.623 424.671 193.335C425.465 194.048 426.24 194.782 426.999 195.535C427.759 196.291 428.499 197.066 429.224 197.86C429.949 198.654 430.655 199.466 431.343 200.301C432.03 201.132 432.699 201.982 433.349 202.851C433.999 203.72 434.63 204.604 435.24 205.507C435.852 206.41 436.44 207.329 437.012 208.26C437.58 209.195 438.127 210.145 438.655 211.107C439.18 212.073 439.687 213.048 440.168 214.038C440.652 215.029 441.112 216.032 441.552 217.048C441.99 218.063 442.405 219.091 442.796 220.129C443.19 221.166 443.559 222.213 443.902 223.273C444.246 224.329 444.568 225.398 444.865 226.473C445.165 227.548 445.437 228.629 445.687 229.72C445.934 230.807 446.159 231.904 446.359 233.007C446.559 234.107 446.734 235.213 446.884 236.326C447.034 237.435 447.162 238.551 447.262 239.67C447.362 240.788 447.437 241.907 447.487 243.029C447.537 244.151 447.562 245.273 447.562 246.398Z" fill="white"/>
</mask>
<g mask="url(#mask12_5190_11112)">
<path d="M322.34 177.754V315.038H447.562V177.754H322.34Z" fill="#57D7DB"/>
</g>
</g>
<mask id="mask13_5190_11112" style="mask-type:luminance" maskUnits="userSpaceOnUse" x="502" y="228" width="138" height="149">
<path d="M502.801 228.199H639.601V376.999H502.801V228.199Z" fill="white"/>
</mask>
<g mask="url(#mask13_5190_11112)">
<mask id="mask14_5190_11112" style="mask-type:luminance" maskUnits="userSpaceOnUse" x="503" y="228" width="137" height="149">
<path d="M639.134 302.61C639.134 303.823 639.106 305.032 639.053 306.238C638.997 307.448 638.916 308.654 638.806 309.86C638.697 311.063 638.563 312.263 638.4 313.46C638.234 314.66 638.047 315.851 637.828 317.038C637.613 318.226 637.369 319.404 637.1 320.579C636.828 321.754 636.531 322.92 636.209 324.079C635.888 325.235 635.538 326.385 635.163 327.523C634.791 328.663 634.391 329.791 633.966 330.91C633.538 332.029 633.088 333.135 632.613 334.229C632.138 335.323 631.638 336.404 631.116 337.47C630.591 338.538 630.044 339.591 629.472 340.629C628.9 341.666 628.306 342.688 627.688 343.695C627.069 344.701 626.431 345.691 625.769 346.663C625.106 347.635 624.422 348.588 623.719 349.526C623.013 350.46 622.288 351.376 621.541 352.273C620.794 353.17 620.028 354.045 619.241 354.901C618.456 355.757 617.65 356.591 616.828 357.404C616.003 358.216 615.163 359.007 614.303 359.776C613.444 360.545 612.569 361.288 611.675 362.007C610.781 362.729 609.872 363.426 608.95 364.098C608.025 364.77 607.088 365.416 606.131 366.041C605.178 366.663 604.213 367.26 603.231 367.829C602.253 368.401 601.259 368.945 600.253 369.46C599.25 369.979 598.234 370.47 597.206 370.932C596.181 371.395 595.144 371.832 594.097 372.238C593.05 372.645 591.994 373.026 590.931 373.376C589.869 373.729 588.797 374.051 587.719 374.345C586.641 374.638 585.556 374.904 584.466 375.141C583.375 375.376 582.281 375.582 581.181 375.76C580.081 375.938 578.978 376.085 577.872 376.204C576.766 376.323 575.659 376.413 574.547 376.473C573.438 376.532 572.328 376.56 571.216 376.56C570.103 376.56 568.994 376.532 567.884 376.473C566.772 376.413 565.666 376.323 564.559 376.204C563.453 376.085 562.35 375.938 561.25 375.76C560.15 375.582 559.056 375.376 557.966 375.141C556.875 374.904 555.791 374.638 554.713 374.345C553.634 374.051 552.563 373.729 551.5 373.376C550.438 373.026 549.381 372.645 548.334 372.238C547.288 371.832 546.25 371.395 545.225 370.932C544.197 370.47 543.181 369.979 542.178 369.46C541.172 368.945 540.178 368.401 539.2 367.829C538.219 367.26 537.253 366.663 536.3 366.041C535.344 365.416 534.406 364.77 533.481 364.098C532.559 363.426 531.65 362.729 530.756 362.007C529.863 361.288 528.988 360.545 528.128 359.776C527.269 359.007 526.428 358.216 525.603 357.404C524.781 356.591 523.975 355.757 523.191 354.901C522.403 354.045 521.638 353.17 520.891 352.273C520.144 351.376 519.419 350.46 518.713 349.526C518.009 348.588 517.325 347.635 516.663 346.663C516 345.691 515.363 344.701 514.744 343.695C514.125 342.688 513.531 341.666 512.959 340.629C512.388 339.591 511.841 338.538 511.316 337.47C510.794 336.404 510.294 335.323 509.819 334.229C509.344 333.135 508.894 332.029 508.466 330.91C508.041 329.791 507.641 328.663 507.269 327.523C506.894 326.385 506.544 325.235 506.222 324.079C505.9 322.92 505.603 321.754 505.331 320.579C505.063 319.404 504.819 318.226 504.603 317.038C504.384 315.851 504.197 314.66 504.031 313.46C503.869 312.263 503.734 311.063 503.625 309.86C503.516 308.654 503.434 307.448 503.378 306.238C503.325 305.032 503.297 303.823 503.297 302.61C503.297 301.401 503.325 300.191 503.378 298.982C503.434 297.773 503.516 296.566 503.625 295.363C503.734 294.157 503.869 292.957 504.031 291.76C504.197 290.563 504.384 289.37 504.603 288.185C504.819 286.998 505.063 285.816 505.331 284.641C505.603 283.47 505.9 282.304 506.222 281.145C506.544 279.985 506.894 278.838 507.269 277.698C507.641 276.557 508.041 275.429 508.466 274.31C508.894 273.195 509.344 272.088 509.819 270.995C510.294 269.898 510.794 268.82 511.316 267.751C511.841 266.682 512.388 265.632 512.959 264.591C513.531 263.554 514.125 262.532 514.744 261.526C515.363 260.52 516 259.532 516.663 258.56C517.325 257.585 518.009 256.632 518.713 255.698C519.419 254.763 520.144 253.845 520.891 252.948C521.638 252.051 522.403 251.176 523.191 250.32C523.975 249.463 524.781 248.629 525.603 247.816C526.428 247.004 527.269 246.213 528.128 245.448C528.988 244.679 529.863 243.935 530.756 243.213C531.65 242.491 532.559 241.795 533.481 241.123C534.406 240.451 535.344 239.804 536.3 239.182C537.253 238.56 538.219 237.963 539.2 237.391C540.178 236.823 541.172 236.279 542.178 235.76C543.181 235.245 544.197 234.754 545.225 234.288C546.25 233.826 547.288 233.391 548.334 232.982C549.381 232.576 550.438 232.198 551.5 231.845C552.563 231.495 553.634 231.17 554.713 230.876C555.791 230.582 556.875 230.316 557.966 230.082C559.056 229.845 560.15 229.638 561.25 229.46C562.35 229.282 563.453 229.135 564.559 229.016C565.666 228.898 566.772 228.81 567.884 228.751C568.994 228.691 570.103 228.66 571.216 228.66C572.328 228.66 573.438 228.691 574.547 228.751C575.659 228.81 576.766 228.898 577.872 229.016C578.978 229.135 580.081 229.282 581.181 229.46C582.281 229.638 583.375 229.845 584.466 230.082C585.556 230.316 586.641 230.582 587.719 230.876C588.797 231.17 589.869 231.495 590.931 231.845C591.994 232.198 593.05 232.576 594.097 232.982C595.144 233.391 596.181 233.826 597.206 234.288C598.234 234.754 599.25 235.245 600.253 235.76C601.259 236.279 602.253 236.823 603.231 237.391C604.213 237.963 605.178 238.56 606.131 239.182C607.088 239.804 608.025 240.451 608.95 241.123C609.872 241.795 610.781 242.491 611.675 243.213C612.569 243.935 613.444 244.679 614.303 245.448C615.163 246.213 616.003 247.004 616.828 247.816C617.65 248.629 618.456 249.463 619.241 250.32C620.028 251.176 620.794 252.051 621.541 252.948C622.288 253.845 623.013 254.763 623.719 255.698C624.422 256.632 625.106 257.585 625.769 258.56C626.431 259.532 627.069 260.52 627.688 261.526C628.306 262.532 628.9 263.554 629.472 264.591C630.044 265.632 630.591 266.682 631.116 267.751C631.638 268.82 632.138 269.898 632.613 270.995C633.088 272.088 633.538 273.195 633.966 274.31C634.391 275.429 634.791 276.557 635.163 277.698C635.538 278.838 635.888 279.985 636.209 281.145C636.531 282.304 636.828 283.47 637.1 284.641C637.369 285.816 637.613 286.998 637.828 288.185C638.047 289.37 638.234 290.563 638.4 291.76C638.563 292.957 638.697 294.157 638.806 295.363C638.916 296.566 638.997 297.773 639.053 298.982C639.106 300.191 639.134 301.401 639.134 302.61Z" fill="white"/>
</mask>
<g mask="url(#mask14_5190_11112)">
<path d="M503.297 228.66V376.56H639.134V228.66H503.297Z" fill="url(#paint2_linear_5190_11112)"/>
</g>
</g>
<mask id="mask15_5190_11112" style="mask-type:luminance" maskUnits="userSpaceOnUse" x="694" y="177" width="137" height="149">
<path d="M694.801 177.742H830.801V325.802H694.801V177.742Z" fill="white"/>
</mask>
<g mask="url(#mask15_5190_11112)">
<mask id="mask16_5190_11112" style="mask-type:luminance" maskUnits="userSpaceOnUse" x="694" y="177" width="137" height="149">
<path d="M830.705 251.704C830.705 252.916 830.677 254.126 830.623 255.335C830.567 256.541 830.486 257.751 830.377 258.954C830.267 260.157 830.133 261.36 829.967 262.557C829.805 263.754 829.614 264.945 829.398 266.132C829.183 267.32 828.939 268.501 828.667 269.673C828.398 270.848 828.102 272.013 827.78 273.173C827.458 274.329 827.108 275.479 826.733 276.62C826.358 277.757 825.958 278.885 825.533 280.004C825.108 281.123 824.658 282.229 824.183 283.323C823.708 284.416 823.208 285.498 822.683 286.566C822.161 287.632 821.611 288.685 821.042 289.723C820.47 290.76 819.873 291.782 819.258 292.791C818.639 293.798 817.998 294.785 817.339 295.757C816.677 296.729 815.992 297.682 815.286 298.62C814.583 299.554 813.855 300.47 813.111 301.366C812.364 302.263 811.595 303.141 810.811 303.995C810.023 304.851 809.22 305.685 808.395 306.498C807.573 307.31 806.733 308.101 805.873 308.87C805.014 309.638 804.136 310.382 803.245 311.104C802.352 311.823 801.442 312.52 800.517 313.191C799.595 313.866 798.655 314.513 797.702 315.135C796.748 315.757 795.783 316.354 794.802 316.923C793.82 317.495 792.83 318.038 791.823 318.557C790.82 319.073 789.805 319.563 788.777 320.026C787.748 320.488 786.714 320.926 785.667 321.332C784.62 321.741 783.564 322.12 782.502 322.473C781.436 322.823 780.367 323.145 779.289 323.438C778.211 323.732 777.127 323.998 776.036 324.235C774.945 324.47 773.852 324.679 772.752 324.854C771.652 325.032 770.548 325.182 769.442 325.301C768.336 325.42 767.227 325.507 766.117 325.566C765.008 325.626 763.895 325.657 762.786 325.657C761.673 325.657 760.564 325.626 759.452 325.566C758.342 325.507 757.233 325.42 756.127 325.301C755.02 325.182 753.92 325.032 752.82 324.854C751.72 324.679 750.627 324.47 749.536 324.235C748.445 323.998 747.361 323.732 746.283 323.438C745.205 323.145 744.133 322.823 743.07 322.473C742.005 322.12 740.952 321.741 739.905 321.332C738.858 320.926 737.82 320.488 736.795 320.026C735.767 319.563 734.752 319.073 733.745 318.557C732.742 318.038 731.748 317.495 730.767 316.923C729.789 316.354 728.82 315.757 727.867 315.135C726.914 314.513 725.977 313.866 725.052 313.191C724.127 312.52 723.22 311.823 722.327 311.104C721.433 310.382 720.558 309.638 719.698 308.87C718.839 308.101 717.998 307.31 717.173 306.498C716.352 305.685 715.545 304.851 714.761 303.995C713.973 303.141 713.208 302.263 712.461 301.366C711.714 300.47 710.989 299.554 710.283 298.62C709.58 297.682 708.895 296.729 708.233 295.757C707.57 294.785 706.93 293.798 706.314 292.791C705.695 291.782 705.102 290.76 704.53 289.723C703.958 288.685 703.411 287.632 702.886 286.566C702.361 285.498 701.864 284.416 701.389 283.323C700.911 282.229 700.461 281.123 700.036 280.004C699.611 278.885 699.211 277.757 698.836 276.62C698.464 275.479 698.114 274.329 697.792 273.173C697.467 272.013 697.173 270.848 696.902 269.673C696.633 268.501 696.389 267.32 696.17 266.132C695.955 264.945 695.764 263.754 695.602 262.557C695.439 261.36 695.302 260.157 695.195 258.954C695.086 257.751 695.005 256.541 694.948 255.335C694.895 254.126 694.867 252.916 694.867 251.704C694.867 250.495 694.895 249.285 694.948 248.076C695.005 246.866 695.086 245.66 695.195 244.457C695.302 243.254 695.439 242.051 695.602 240.854C695.764 239.657 695.955 238.466 696.17 237.279C696.389 236.091 696.633 234.91 696.902 233.738C697.173 232.563 697.467 231.398 697.792 230.238C698.114 229.082 698.464 227.932 698.836 226.791C699.211 225.654 699.611 224.523 700.036 223.407C700.461 222.288 700.911 221.182 701.389 220.088C701.864 218.995 702.361 217.913 702.886 216.845C703.411 215.779 703.958 214.726 704.53 213.688C705.102 212.648 705.695 211.626 706.314 210.62C706.93 209.613 707.57 208.626 708.233 207.654C708.895 206.682 709.58 205.726 710.283 204.791C710.989 203.857 711.714 202.941 712.461 202.045C713.208 201.148 713.973 200.27 714.761 199.413C715.545 198.56 716.352 197.726 717.173 196.91C717.998 196.098 718.839 195.31 719.698 194.541C720.558 193.773 721.433 193.029 722.327 192.307C723.22 191.588 724.127 190.891 725.052 190.216C725.977 189.545 726.914 188.898 727.867 188.276C728.82 187.654 729.789 187.057 730.767 186.488C731.748 185.916 732.742 185.373 733.745 184.854C734.752 184.338 735.767 183.848 736.795 183.385C737.82 182.92 738.858 182.485 739.905 182.079C740.952 181.67 742.005 181.291 743.07 180.938C744.133 180.588 745.205 180.266 746.283 179.973C747.361 179.676 748.445 179.413 749.536 179.176C750.627 178.938 751.72 178.732 752.82 178.554C753.92 178.379 755.02 178.229 756.127 178.11C757.233 177.991 758.342 177.904 759.452 177.845C760.564 177.785 761.673 177.754 762.786 177.754C763.895 177.754 765.008 177.785 766.117 177.845C767.227 177.904 768.336 177.991 769.442 178.11C770.548 178.229 771.652 178.379 772.752 178.554C773.852 178.732 774.945 178.938 776.036 179.176C777.127 179.413 778.211 179.676 779.289 179.973C780.367 180.266 781.436 180.588 782.502 180.938C783.564 181.291 784.62 181.67 785.667 182.079C786.714 182.485 787.748 182.92 788.777 183.385C789.805 183.848 790.82 184.338 791.823 184.854C792.83 185.373 793.82 185.916 794.802 186.488C795.783 187.057 796.748 187.654 797.702 188.276C798.655 188.898 799.595 189.545 800.517 190.216C801.442 190.891 802.352 191.588 803.245 192.307C804.136 193.029 805.014 193.773 805.873 194.541C806.733 195.31 807.573 196.098 808.395 196.91C809.22 197.726 810.023 198.56 810.811 199.413C811.595 200.27 812.364 201.148 813.111 202.045C813.855 202.941 814.583 203.857 815.286 204.791C815.992 205.726 816.677 206.682 817.339 207.654C817.998 208.626 818.639 209.613 819.258 210.62C819.873 211.626 820.47 212.648 821.042 213.688C821.611 214.726 822.161 215.779 822.683 216.845C823.208 217.913 823.708 218.995 824.183 220.088C824.658 221.182 825.108 222.288 825.533 223.407C825.958 224.523 826.358 225.654 826.733 226.791C827.108 227.932 827.458 229.082 827.78 230.238C828.102 231.398 828.398 232.563 828.667 233.738C828.939 234.91 829.183 236.091 829.398 237.279C829.614 238.466 829.805 239.657 829.967 240.854C830.133 242.051 830.267 243.254 830.377 244.457C830.486 245.66 830.567 246.866 830.623 248.076C830.677 249.285 830.705 250.495 830.705 251.704Z" fill="white"/>
</mask>
<g mask="url(#mask16_5190_11112)">
<path d="M694.867 177.754V325.657H830.705V177.754H694.867Z" fill="#57D7DB"/>
</g>
</g>
</g>
</g>
<path d="M138.871 825.941C144.066 825.941 152.023 826.488 162.742 827.582C173.516 828.676 181.582 829.223 186.941 829.223C191.918 829.223 196.238 828.676 199.902 827.582C201.16 829.934 201.789 832.586 201.789 835.539C201.789 838.875 201.023 841.035 199.492 842.02C197.961 843.059 195.473 843.578 192.027 843.578C185.793 843.578 176.633 842.484 164.547 840.297C152.461 838.164 143.438 837.098 137.477 837.098C132.391 837.098 127.961 837.754 124.188 839.066C122.93 836.66 122.301 834.254 122.301 831.848C122.301 829.988 122.629 828.703 123.285 827.992C123.941 827.336 125.363 826.816 127.551 826.434C129.793 826.105 133.566 825.941 138.871 825.941ZM103.516 764.172C103.516 742.078 107.973 725.891 116.887 715.609C125.855 705.328 138.488 700.188 154.785 700.188C169.66 700.188 180.98 703.934 188.746 711.426C196.512 718.863 200.395 732.754 200.395 753.098C200.395 775.191 195.91 791.379 186.941 801.66C178.027 811.941 165.422 817.082 149.125 817.082C134.25 817.082 122.93 813.363 115.164 805.926C107.398 798.488 103.516 784.57 103.516 764.172ZM123.613 756.625C123.613 775.438 126.074 788.234 130.996 795.016C135.973 801.742 143.328 805.105 153.062 805.105C162.086 805.105 168.867 801.688 173.406 794.852C178 788.016 180.297 776.613 180.297 760.645C180.297 741.613 177.809 728.789 172.832 722.172C167.91 715.5 160.582 712.164 150.848 712.164C141.824 712.164 135.016 715.582 130.422 722.418C125.883 729.254 123.613 740.656 123.613 756.625ZM258.965 700.598C265.145 700.598 268.645 700.844 269.465 701.336C270.285 701.773 275.809 717.059 286.035 747.191C296.262 777.27 303.18 796.656 306.789 805.352H314.008C314.664 806.992 314.992 808.578 314.992 810.109C314.992 811.477 314.719 812.434 314.172 812.98C313.625 813.527 312.668 813.801 311.301 813.801H277.258C276.547 811.941 276.191 810.219 276.191 808.633C276.191 807.484 276.465 806.664 277.012 806.172C277.613 805.625 278.57 805.352 279.883 805.352H284.312C283.273 800.484 280.648 791.133 276.438 777.297H239.441C235.613 791.023 233.316 800.375 232.551 805.352H240.18C240.836 806.992 241.164 808.578 241.164 810.109C241.164 811.477 240.891 812.434 240.344 812.98C239.797 813.527 238.84 813.801 237.473 813.801H207.285C206.629 811.941 206.301 810.219 206.301 808.633C206.301 807.484 206.574 806.664 207.121 806.172C207.723 805.625 208.68 805.352 209.992 805.352H214.75C218.359 795.398 224.348 777.434 232.715 751.457C241.082 725.426 246.25 710.441 248.219 706.504C250.188 702.566 253.77 700.598 258.965 700.598ZM273.238 766.715C263.285 735.051 257.926 719.219 257.16 719.219C256.449 719.219 251.5 735.051 242.312 766.715H273.238ZM355.926 701.828C364.73 717.742 373.016 732.262 380.781 745.387C388.602 758.457 397.105 774.07 406.293 792.227V746.863C406.293 730.074 406.102 717.879 405.719 710.277H397.27C396.559 708.418 396.203 706.695 396.203 705.109C396.203 703.961 396.477 703.141 397.023 702.648C397.625 702.102 398.582 701.828 399.895 701.828H430.738C431.395 703.469 431.723 705.055 431.723 706.586C431.723 707.953 431.449 708.91 430.902 709.457C430.355 710.004 429.398 710.277 428.031 710.277H421.387C421.004 717.879 420.812 730.402 420.812 747.848V807.156C420.812 810.383 420.32 812.434 419.336 813.309C418.406 814.184 416.191 814.621 412.691 814.621C405.91 814.621 402 814.348 400.961 813.801C399.977 813.309 393.332 803.164 381.027 783.367C368.777 763.57 358.496 745.059 350.184 727.832C350.184 771.91 350.375 797.75 350.758 805.352H358.797C359.508 806.992 359.863 808.578 359.863 810.109C359.863 811.477 359.59 812.434 359.043 812.98C358.496 813.527 357.512 813.801 356.09 813.801H325.574C324.863 811.941 324.508 810.219 324.508 808.633C324.508 807.484 324.781 806.664 325.328 806.172C325.93 805.625 326.887 805.352 328.199 805.352H335.09C335.473 797.75 335.664 778.254 335.664 746.863C335.664 730.074 335.445 717.879 335.008 710.277H327.215C326.504 708.418 326.148 706.695 326.148 705.109C326.148 703.961 326.422 703.141 326.969 702.648C327.57 702.102 328.527 701.828 329.84 701.828H355.926ZM449.523 763.352C449.523 741.805 453.98 725.891 462.895 715.609C471.863 705.328 484.496 700.188 500.793 700.188C515.668 700.188 526.988 703.934 534.754 711.426C542.52 718.863 546.402 732.48 546.402 752.277C546.402 773.824 541.918 789.738 532.949 800.02C524.035 810.301 511.43 815.441 495.133 815.441C480.258 815.441 468.938 811.723 461.172 804.285C453.406 796.848 449.523 783.203 449.523 763.352ZM469.621 755.805C469.621 774.07 472.082 786.594 477.004 793.375C481.98 800.102 489.336 803.465 499.07 803.465C508.094 803.465 514.875 800.047 519.414 793.211C524.008 786.375 526.305 775.246 526.305 759.824C526.305 741.34 523.816 728.789 518.84 722.172C513.918 715.5 506.59 712.164 496.855 712.164C487.832 712.164 481.023 715.582 476.43 722.418C471.891 729.254 469.621 740.383 469.621 755.805ZM565.352 763.352C565.352 741.805 569.809 725.891 578.723 715.609C587.691 705.328 600.324 700.188 616.621 700.188C631.496 700.188 642.816 703.934 650.582 711.426C658.348 718.863 662.23 732.48 662.23 752.277C662.23 773.824 657.746 789.738 648.777 800.02C639.863 810.301 627.258 815.441 610.961 815.441C596.086 815.441 584.766 811.723 577 804.285C569.234 796.848 565.352 783.203 565.352 763.352ZM585.449 755.805C585.449 774.07 587.91 786.594 592.832 793.375C597.809 800.102 605.164 803.465 614.898 803.465C623.922 803.465 630.703 800.047 635.242 793.211C639.836 786.375 642.133 775.246 642.133 759.824C642.133 741.34 639.645 728.789 634.668 722.172C629.746 715.5 622.418 712.164 612.684 712.164C603.66 712.164 596.852 715.582 592.258 722.418C587.719 729.254 585.449 740.383 585.449 755.805ZM711.285 701.828C720.09 717.742 728.375 732.262 736.141 745.387C743.961 758.457 752.465 774.07 761.652 792.227V746.863C761.652 730.074 761.461 717.879 761.078 710.277H752.629C751.918 708.418 751.562 706.695 751.562 705.109C751.562 703.961 751.836 703.141 752.383 702.648C752.984 702.102 753.941 701.828 755.254 701.828H786.098C786.754 703.469 787.082 705.055 787.082 706.586C787.082 707.953 786.809 708.91 786.262 709.457C785.715 710.004 784.758 710.277 783.391 710.277H776.746C776.363 717.879 776.172 730.402 776.172 747.848V807.156C776.172 810.383 775.68 812.434 774.695 813.309C773.766 814.184 771.551 814.621 768.051 814.621C761.27 814.621 757.359 814.348 756.32 813.801C755.336 813.309 748.691 803.164 736.387 783.367C724.137 763.57 713.855 745.059 705.543 727.832C705.543 771.91 705.734 797.75 706.117 805.352H714.156C714.867 806.992 715.223 808.578 715.223 810.109C715.223 811.477 714.949 812.434 714.402 812.98C713.855 813.527 712.871 813.801 711.449 813.801H680.934C680.223 811.941 679.867 810.219 679.867 808.633C679.867 807.484 680.141 806.664 680.688 806.172C681.289 805.625 682.246 805.352 683.559 805.352H690.449C690.832 797.75 691.023 778.254 691.023 746.863C691.023 730.074 690.805 717.879 690.367 710.277H682.574C681.863 708.418 681.508 706.695 681.508 705.109C681.508 703.961 681.781 703.141 682.328 702.648C682.93 702.102 683.887 701.828 685.199 701.828H711.285ZM884.945 701.828C885.602 703.469 885.93 705.055 885.93 706.586C885.93 707.953 885.656 708.91 885.109 709.457C884.562 710.004 883.605 710.277 882.238 710.277H876.414C876.031 717.879 875.84 730.867 875.84 749.242H924.484C924.43 730.867 924.211 717.879 923.828 710.277H915.379C914.668 708.418 914.312 706.695 914.312 705.109C914.312 703.961 914.586 703.141 915.133 702.648C915.734 702.102 916.691 701.828 918.004 701.828H952.539C953.195 703.469 953.523 705.055 953.523 706.586C953.523 707.953 953.25 708.91 952.703 709.457C952.156 710.004 951.199 710.277 949.832 710.277H943.188C942.805 717.879 942.613 730.402 942.613 747.848C942.613 778.582 942.832 797.75 943.27 805.352H952.539C953.195 806.992 953.523 808.578 953.523 810.109C953.523 811.477 953.25 812.434 952.703 812.98C952.156 813.527 951.199 813.801 949.832 813.801H915.379C914.668 811.941 914.312 810.219 914.312 808.633C914.312 807.484 914.586 806.664 915.133 806.172C915.734 805.625 916.691 805.352 918.004 805.352H923.828C924.211 798.898 924.43 783.723 924.484 759.824H875.84C875.895 783.668 876.113 798.844 876.496 805.352H884.945C885.602 806.992 885.93 808.578 885.93 810.109C885.93 811.477 885.656 812.434 885.109 812.98C884.562 813.527 883.605 813.801 882.238 813.801H847.785C847.074 811.941 846.719 810.219 846.719 808.633C846.719 807.484 846.992 806.664 847.539 806.172C848.141 805.625 849.098 805.352 850.41 805.352H857.055C857.492 797.75 857.711 778.254 857.711 746.863C857.656 730.074 857.438 717.879 857.055 710.277H847.785C847.074 708.418 846.719 706.695 846.719 705.109C846.719 703.961 846.992 703.141 847.539 702.648C848.141 702.102 849.098 701.828 850.41 701.828H884.945ZM999.871 756.297H1006.76C1016.28 756.297 1023.47 754.629 1028.34 751.293C1033.26 747.957 1035.72 742.98 1035.72 736.363C1035.72 728.598 1033.5 722.91 1029.07 719.301C1024.64 715.637 1018.3 713.805 1010.04 713.805C1006.27 713.805 1003.1 714.078 1000.53 714.625C1000.09 719.328 999.871 730.402 999.871 747.848V756.297ZM1012.26 805.352C1012.91 806.992 1013.24 808.578 1013.24 810.109C1013.24 811.477 1012.97 812.434 1012.42 812.98C1011.88 813.527 1010.92 813.801 1009.55 813.801H970.996C970.285 811.941 969.93 810.219 969.93 808.633C969.93 807.484 970.203 806.664 970.75 806.172C971.352 805.625 972.309 805.352 973.621 805.352H981.086C981.523 797.75 981.742 778.254 981.742 746.863C981.742 730.074 981.523 717.879 981.086 710.277H971.57C970.914 708.418 970.586 706.695 970.586 705.109C970.586 703.961 970.859 703.141 971.406 702.648C972.008 702.102 972.965 701.828 974.277 701.828H1009.63C1026.31 701.828 1038.18 704.125 1045.23 708.719C1052.29 713.312 1055.82 720.559 1055.82 730.457C1055.82 745.605 1046.74 755.941 1028.58 761.465C1033.78 763.051 1037.99 765.977 1041.21 770.242C1044.44 774.453 1047.83 780.496 1051.39 788.371C1055 796.246 1057.81 801.086 1059.84 802.891C1061.91 804.641 1064.84 805.461 1068.61 805.352C1069.76 809.289 1069.62 811.969 1068.2 813.391C1066.78 814.758 1063.25 815.441 1057.62 815.441C1051.11 815.441 1046.44 814.594 1043.59 812.898C1040.75 811.203 1037.77 805.188 1034.65 794.852C1031.59 784.461 1028.34 777.16 1024.89 772.949C1021.45 768.738 1016.47 766.633 1009.96 766.633C1006.57 766.633 1003.21 766.906 999.871 767.453C999.98 786.32 1000.2 798.953 1000.53 805.352H1012.26Z" fill="black"/>
<defs>
<linearGradient id="paint0_linear_5190_11112" x1="539.469" y1="413.329" x2="386.538" y2="650.64" gradientUnits="userSpaceOnUse">
<stop stop-color="#5F58A6"/>
<stop offset="0.125" stop-color="#5F58A6"/>
<stop offset="0.140625" stop-color="#5F58A6"/>
<stop offset="0.148438" stop-color="#5E59A7"/>
<stop offset="0.15625" stop-color="#5D5AA7"/>
<stop offset="0.164062" stop-color="#5D5BA8"/>
<stop offset="0.171875" stop-color="#5C5CA9"/>
<stop offset="0.179687" stop-color="#5B5DAA"/>
<stop offset="0.1875" stop-color="#5B5EAA"/>
<stop offset="0.195312" stop-color="#5A5FAB"/>
<stop offset="0.203125" stop-color="#5960AC"/>
<stop offset="0.210938" stop-color="#5861AC"/>
<stop offset="0.21875" stop-color="#5862AD"/>
<stop offset="0.226562" stop-color="#5763AE"/>
<stop offset="0.234375" stop-color="#5664AF"/>
<stop offset="0.242187" stop-color="#5565AF"/>
<stop offset="0.25" stop-color="#5566B0"/>
<stop offset="0.257812" stop-color="#5467B1"/>
<stop offset="0.265625" stop-color="#5368B1"/>
<stop offset="0.273438" stop-color="#5269B2"/>
<stop offset="0.28125" stop-color="#526AB3"/>
<stop offset="0.289062" stop-color="#516BB4"/>
<stop offset="0.296875" stop-color="#506CB4"/>
<stop offset="0.304688" stop-color="#506DB5"/>
<stop offset="0.3125" stop-color="#4F6EB6"/>
<stop offset="0.320312" stop-color="#4E6FB6"/>
<stop offset="0.328125" stop-color="#4D6FB7"/>
<stop offset="0.335937" stop-color="#4D70B8"/>
<stop offset="0.34375" stop-color="#4C71B9"/>
<stop offset="0.351562" stop-color="#4B72B9"/>
<stop offset="0.359375" stop-color="#4A73BA"/>
<stop offset="0.367187" stop-color="#4A74BB"/>
<stop offset="0.375" stop-color="#4975BC"/>
<stop offset="0.382812" stop-color="#4876BC"/>
<stop offset="0.390625" stop-color="#4777BD"/>
<stop offset="0.395812" stop-color="#4778BE"/>
<stop offset="0.398438" stop-color="#4679BE"/>
<stop offset="0.40625" stop-color="#4679BE"/>
<stop offset="0.414062" stop-color="#457ABF"/>
<stop offset="0.421875" stop-color="#447BC0"/>
<stop offset="0.429688" stop-color="#447CC1"/>
<stop offset="0.4375" stop-color="#437DC1"/>
<stop offset="0.445312" stop-color="#427EC2"/>
<stop offset="0.453125" stop-color="#427FC3"/>
<stop offset="0.460937" stop-color="#4180C3"/>
<stop offset="0.46875" stop-color="#4081C4"/>
<stop offset="0.476562" stop-color="#3F82C5"/>
<stop offset="0.484375" stop-color="#3F83C6"/>
<stop offset="0.492188" stop-color="#3E84C6"/>
<stop offset="0.5" stop-color="#3D85C7"/>
<stop offset="0.507812" stop-color="#3C86C8"/>
<stop offset="0.515625" stop-color="#3C87C8"/>
<stop offset="0.523438" stop-color="#3B88C9"/>
<stop offset="0.53125" stop-color="#3A89CA"/>
<stop offset="0.539062" stop-color="#398ACB"/>
<stop offset="0.546875" stop-color="#398BCB"/>
<stop offset="0.554688" stop-color="#388CCC"/>
<stop offset="0.5625" stop-color="#378DCD"/>
<stop offset="0.570312" stop-color="#378ECD"/>
<stop offset="0.578125" stop-color="#368FCE"/>
<stop offset="0.585938" stop-color="#3590CF"/>
<stop offset="0.59375" stop-color="#3491D0"/>
<stop offset="0.601562" stop-color="#3492D0"/>
<stop offset="0.604188" stop-color="#3393D1"/>
<stop offset="0.609375" stop-color="#3293D1"/>
<stop offset="0.617188" stop-color="#3294D2"/>
<stop offset="0.625" stop-color="#3195D2"/>
<stop offset="0.632812" stop-color="#3196D3"/>
<stop offset="0.640625" stop-color="#3097D4"/>
<stop offset="0.648438" stop-color="#2F98D5"/>
<stop offset="0.65625" stop-color="#2E99D5"/>
<stop offset="0.664063" stop-color="#2E99D6"/>
<stop offset="0.671875" stop-color="#2D9AD7"/>
<stop offset="0.679688" stop-color="#2C9BD7"/>
<stop offset="0.6875" stop-color="#2C9CD8"/>
<stop offset="0.695312" stop-color="#2B9DD9"/>
<stop offset="0.703125" stop-color="#2A9EDA"/>
<stop offset="0.710937" stop-color="#299FDA"/>
<stop offset="0.71875" stop-color="#29A0DB"/>
<stop offset="0.726562" stop-color="#28A1DC"/>
<stop offset="0.734375" stop-color="#27A2DC"/>
<stop offset="0.742188" stop-color="#26A3DD"/>
<stop offset="0.75" stop-color="#26A4DE"/>
<stop offset="0.757812" stop-color="#25A5DF"/>
<stop offset="0.765625" stop-color="#24A6DF"/>
<stop offset="0.773438" stop-color="#23A7E0"/>
<stop offset="0.78125" stop-color="#23A8E1"/>
<stop offset="0.789062" stop-color="#22A9E1"/>
<stop offset="0.796875" stop-color="#21AAE2"/>
<stop offset="0.804688" stop-color="#20ABE3"/>
<stop offset="0.8125" stop-color="#20ACE4"/>
<stop offset="0.820312" stop-color="#1FADE4"/>
<stop offset="0.828125" stop-color="#1EAEE5"/>
<stop offset="0.835937" stop-color="#1EAFE6"/>
<stop offset="0.84375" stop-color="#1DB0E6"/>
<stop offset="0.851562" stop-color="#1CB1E7"/>
<stop offset="0.859375" stop-color="#1BB2E8"/>
<stop offset="0.867188" stop-color="#1BB3E9"/>
<stop offset="0.875" stop-color="#1AB4E9"/>
<stop offset="0.882812" stop-color="#19B5EA"/>
<stop offset="0.890625" stop-color="#18B6EB"/>
<stop offset="0.898437" stop-color="#18B7EB"/>
<stop offset="0.90625" stop-color="#17B8EC"/>
<stop offset="0.914062" stop-color="#16B9ED"/>
<stop offset="0.921875" stop-color="#15BAEE"/>
<stop offset="0.929687" stop-color="#15BBEE"/>
<stop offset="0.9375" stop-color="#14BCEF"/>
<stop offset="1" stop-color="#13BDF0"/>
</linearGradient>
<linearGradient id="paint1_linear_5190_11112" x1="562.357" y1="412.325" x2="736.768" y2="661.151" gradientUnits="userSpaceOnUse">
<stop stop-color="#15B3E9"/>
<stop offset="0.125" stop-color="#15B3E9"/>
<stop offset="0.15625" stop-color="#15B3E9"/>
<stop offset="0.171875" stop-color="#15B3E9"/>
<stop offset="0.179688" stop-color="#15B3E9"/>
<stop offset="0.1875" stop-color="#16B2E8"/>
<stop offset="0.195312" stop-color="#17B1E8"/>
<stop offset="0.203125" stop-color="#17B1E7"/>
<stop offset="0.210938" stop-color="#18B0E6"/>
<stop offset="0.21875" stop-color="#19AFE6"/>
<stop offset="0.226563" stop-color="#19AEE5"/>
<stop offset="0.234375" stop-color="#1AADE5"/>
<stop offset="0.242188" stop-color="#1BADE4"/>
<stop offset="0.25" stop-color="#1CACE3"/>
<stop offset="0.257812" stop-color="#1CABE3"/>
<stop offset="0.265625" stop-color="#1DAAE2"/>
<stop offset="0.273438" stop-color="#1EA9E2"/>
<stop offset="0.28125" stop-color="#1FA9E1"/>
<stop offset="0.289062" stop-color="#1FA8E0"/>
<stop offset="0.296875" stop-color="#20A7E0"/>
<stop offset="0.304688" stop-color="#21A6DF"/>
<stop offset="0.3125" stop-color="#22A5DF"/>
<stop offset="0.320312" stop-color="#22A5DE"/>
<stop offset="0.328125" stop-color="#23A4DD"/>
<stop offset="0.335938" stop-color="#24A3DD"/>
<stop offset="0.34375" stop-color="#24A2DC"/>
<stop offset="0.351563" stop-color="#25A1DB"/>
<stop offset="0.359375" stop-color="#26A1DB"/>
<stop offset="0.367188" stop-color="#27A0DA"/>
<stop offset="0.375" stop-color="#279FDA"/>
<stop offset="0.382813" stop-color="#289ED9"/>
<stop offset="0.390625" stop-color="#299DD8"/>
<stop offset="0.398438" stop-color="#2A9DD8"/>
<stop offset="0.40625" stop-color="#2A9CD7"/>
<stop offset="0.414063" stop-color="#2B9BD7"/>
<stop offset="0.421875" stop-color="#2C9AD6"/>
<stop offset="0.429688" stop-color="#2D99D5"/>
<stop offset="0.4375" stop-color="#2D99D5"/>
<stop offset="0.445313" stop-color="#2E98D4"/>
<stop offset="0.453125" stop-color="#2F97D3"/>
<stop offset="0.458709" stop-color="#2F96D3"/>
<stop offset="0.460938" stop-color="#3096D3"/>
<stop offset="0.46875" stop-color="#3095D2"/>
<stop offset="0.476562" stop-color="#3195D2"/>
<stop offset="0.484375" stop-color="#3294D1"/>
<stop offset="0.492188" stop-color="#3293D0"/>
<stop offset="0.5" stop-color="#3392D0"/>
<stop offset="0.507813" stop-color="#3491CF"/>
<stop offset="0.515625" stop-color="#3591CF"/>
<stop offset="0.523438" stop-color="#3590CE"/>
<stop offset="0.53125" stop-color="#368FCD"/>
<stop offset="0.539062" stop-color="#378ECD"/>
<stop offset="0.541291" stop-color="#388DCC"/>
<stop offset="0.546875" stop-color="#388DCC"/>
<stop offset="0.554688" stop-color="#388DCC"/>
<stop offset="0.5625" stop-color="#398CCB"/>
<stop offset="0.570312" stop-color="#3A8BCA"/>
<stop offset="0.578125" stop-color="#3A8ACA"/>
<stop offset="0.585938" stop-color="#3B89C9"/>
<stop offset="0.59375" stop-color="#3C89C8"/>
<stop offset="0.601562" stop-color="#3D88C8"/>
<stop offset="0.609375" stop-color="#3D87C7"/>
<stop offset="0.617188" stop-color="#3E86C7"/>
<stop offset="0.625" stop-color="#3F85C6"/>
<stop offset="0.632812" stop-color="#4085C5"/>
<stop offset="0.640625" stop-color="#4084C5"/>
<stop offset="0.648438" stop-color="#4183C4"/>
<stop offset="0.65625" stop-color="#4282C4"/>
<stop offset="0.664063" stop-color="#4381C3"/>
<stop offset="0.671875" stop-color="#4381C2"/>
<stop offset="0.679688" stop-color="#4480C2"/>
<stop offset="0.6875" stop-color="#457FC1"/>
<stop offset="0.695312" stop-color="#457EC0"/>
<stop offset="0.703125" stop-color="#467DC0"/>
<stop offset="0.710938" stop-color="#477DBF"/>
<stop offset="0.71875" stop-color="#487CBF"/>
<stop offset="0.726562" stop-color="#487BBE"/>
<stop offset="0.734375" stop-color="#497ABD"/>
<stop offset="0.742188" stop-color="#4A79BD"/>
<stop offset="0.75" stop-color="#4B79BC"/>
<stop offset="0.757812" stop-color="#4B78BC"/>
<stop offset="0.765625" stop-color="#4C77BB"/>
<stop offset="0.773438" stop-color="#4D76BA"/>
<stop offset="0.78125" stop-color="#4E75BA"/>
<stop offset="0.789063" stop-color="#4E75B9"/>
<stop offset="0.796875" stop-color="#4F74B8"/>
<stop offset="0.804688" stop-color="#5073B8"/>
<stop offset="0.8125" stop-color="#5072B7"/>
<stop offset="0.820313" stop-color="#5171B7"/>
<stop offset="0.828125" stop-color="#5271B6"/>
<stop offset="0.835938" stop-color="#5370B5"/>
<stop offset="0.84375" stop-color="#536FB5"/>
<stop offset="0.851563" stop-color="#546EB4"/>
<stop offset="0.859375" stop-color="#556DB4"/>
<stop offset="0.867188" stop-color="#566DB3"/>
<stop offset="0.875" stop-color="#566CB2"/>
<stop offset="0.882812" stop-color="#576BB2"/>
<stop offset="0.890625" stop-color="#586AB1"/>
<stop offset="0.90625" stop-color="#586AB1"/>
<stop offset="0.9375" stop-color="#586AB1"/>
<stop offset="1" stop-color="#586AB1"/>
</linearGradient>
<linearGradient id="paint2_linear_5190_11112" x1="571.216" y1="228.661" x2="571.216" y2="376.561" gradientUnits="userSpaceOnUse">
<stop stop-color="#13BFF1"/>
<stop offset="0.25" stop-color="#13BFF1"/>
<stop offset="0.375" stop-color="#13BFF1"/>
<stop offset="0.40625" stop-color="#13BFF1"/>
<stop offset="0.410156" stop-color="#14BDF0"/>
<stop offset="0.414062" stop-color="#14BDF0"/>
<stop offset="0.417969" stop-color="#15BCEF"/>
<stop offset="0.421875" stop-color="#15BCEF"/>
<stop offset="0.425781" stop-color="#15BBEF"/>
<stop offset="0.429688" stop-color="#16BAEE"/>
<stop offset="0.433594" stop-color="#16BAEE"/>
<stop offset="0.4375" stop-color="#16B9ED"/>
<stop offset="0.441406" stop-color="#17B9ED"/>
<stop offset="0.445312" stop-color="#17B8ED"/>
<stop offset="0.449219" stop-color="#17B7EC"/>
<stop offset="0.453125" stop-color="#18B7EC"/>
<stop offset="0.457031" stop-color="#18B6EC"/>
<stop offset="0.460938" stop-color="#18B6EB"/>
<stop offset="0.464844" stop-color="#19B5EB"/>
<stop offset="0.46875" stop-color="#19B4EA"/>
<stop offset="0.472656" stop-color="#19B4EA"/>
<stop offset="0.476562" stop-color="#1AB3EA"/>
<stop offset="0.480469" stop-color="#1AB3E9"/>
<stop offset="0.484375" stop-color="#1AB2E9"/>
<stop offset="0.488281" stop-color="#1BB1E9"/>
<stop offset="0.492188" stop-color="#1BB1E8"/>
<stop offset="0.496094" stop-color="#1BB0E8"/>
<stop offset="0.5" stop-color="#1CAFE7"/>
<stop offset="0.503906" stop-color="#1CAFE7"/>
<stop offset="0.507812" stop-color="#1DAEE7"/>
<stop offset="0.511719" stop-color="#1DAEE6"/>
<stop offset="0.515625" stop-color="#1DADE6"/>
<stop offset="0.519531" stop-color="#1EACE6"/>
<stop offset="0.523438" stop-color="#1EACE5"/>
<stop offset="0.527344" stop-color="#1EABE5"/>
<stop offset="0.53125" stop-color="#1FABE5"/>
<stop offset="0.535156" stop-color="#1FAAE4"/>
<stop offset="0.539062" stop-color="#1FA9E4"/>
<stop offset="0.542969" stop-color="#20A9E3"/>
<stop offset="0.546875" stop-color="#20A8E3"/>
<stop offset="0.550781" stop-color="#20A8E3"/>
<stop offset="0.554688" stop-color="#21A7E2"/>
<stop offset="0.558594" stop-color="#21A6E2"/>
<stop offset="0.5625" stop-color="#21A6E2"/>
<stop offset="0.566406" stop-color="#22A5E1"/>
<stop offset="0.570312" stop-color="#22A5E1"/>
<stop offset="0.574219" stop-color="#22A4E0"/>
<stop offset="0.578125" stop-color="#23A3E0"/>
<stop offset="0.582031" stop-color="#23A3E0"/>
<stop offset="0.585938" stop-color="#23A2DF"/>
<stop offset="0.589844" stop-color="#24A2DF"/>
<stop offset="0.59375" stop-color="#24A1DF"/>
<stop offset="0.597656" stop-color="#24A0DE"/>
<stop offset="0.601562" stop-color="#25A0DE"/>
<stop offset="0.605469" stop-color="#259FDD"/>
<stop offset="0.609375" stop-color="#259FDD"/>
<stop offset="0.613281" stop-color="#269EDD"/>
<stop offset="0.617188" stop-color="#269DDC"/>
<stop offset="0.621094" stop-color="#279DDC"/>
<stop offset="0.625" stop-color="#279CDC"/>
<stop offset="0.628906" stop-color="#279CDB"/>
<stop offset="0.632812" stop-color="#289BDB"/>
<stop offset="0.636719" stop-color="#289ADB"/>
<stop offset="0.640625" stop-color="#289ADA"/>
<stop offset="0.644531" stop-color="#2999DA"/>
<stop offset="0.648438" stop-color="#2998D9"/>
<stop offset="0.652344" stop-color="#2998D9"/>
<stop offset="0.65625" stop-color="#2A97D9"/>
<stop offset="0.660156" stop-color="#2A97D8"/>
<stop offset="0.664062" stop-color="#2A96D8"/>
<stop offset="0.667969" stop-color="#2B95D8"/>
<stop offset="0.671875" stop-color="#2B95D7"/>
<stop offset="0.675781" stop-color="#2B94D7"/>
<stop offset="0.679688" stop-color="#2C94D6"/>
<stop offset="0.683594" stop-color="#2C93D6"/>
<stop offset="0.6875" stop-color="#2C92D6"/>
<stop offset="0.691406" stop-color="#2D92D5"/>
<stop offset="0.695312" stop-color="#2D91D5"/>
<stop offset="0.699219" stop-color="#2D91D5"/>
<stop offset="0.703125" stop-color="#2E90D4"/>
<stop offset="0.707031" stop-color="#2E8FD4"/>
<stop offset="0.710938" stop-color="#2E8FD3"/>
<stop offset="0.714844" stop-color="#2F8ED3"/>
<stop offset="0.71875" stop-color="#2F8ED3"/>
<stop offset="0.722656" stop-color="#308DD2"/>
<stop offset="0.726562" stop-color="#308CD2"/>
<stop offset="0.730469" stop-color="#308CD2"/>
<stop offset="0.734375" stop-color="#318BD1"/>
<stop offset="0.738281" stop-color="#318BD1"/>
<stop offset="0.742188" stop-color="#318AD0"/>
<stop offset="0.746094" stop-color="#3289D0"/>
<stop offset="0.75" stop-color="#3289D0"/>
<stop offset="0.753906" stop-color="#3288CF"/>
<stop offset="0.757812" stop-color="#3388CF"/>
<stop offset="0.761719" stop-color="#3387CF"/>
<stop offset="0.765625" stop-color="#3386CE"/>
<stop offset="0.769531" stop-color="#3486CE"/>
<stop offset="0.773438" stop-color="#3485CE"/>
<stop offset="0.777344" stop-color="#3485CD"/>
<stop offset="0.78125" stop-color="#3584CD"/>
<stop offset="0.785156" stop-color="#3583CC"/>
<stop offset="0.789062" stop-color="#3583CC"/>
<stop offset="0.792969" stop-color="#3682CC"/>
<stop offset="0.796875" stop-color="#3681CB"/>
<stop offset="0.800781" stop-color="#3681CB"/>
<stop offset="0.804688" stop-color="#3780CB"/>
<stop offset="0.808594" stop-color="#3780CA"/>
<stop offset="0.8125" stop-color="#377FCA"/>
<stop offset="0.816406" stop-color="#387EC9"/>
<stop offset="0.820312" stop-color="#387EC9"/>
<stop offset="0.824219" stop-color="#387DC9"/>
<stop offset="0.828125" stop-color="#397DC8"/>
<stop offset="0.832031" stop-color="#397CC8"/>
<stop offset="0.835938" stop-color="#3A7BC8"/>
<stop offset="0.839844" stop-color="#3A7BC7"/>
<stop offset="0.84375" stop-color="#3A7AC7"/>
<stop offset="0.847656" stop-color="#3B7AC6"/>
<stop offset="0.851562" stop-color="#3B79C6"/>
<stop offset="0.855469" stop-color="#3B78C6"/>
<stop offset="0.859375" stop-color="#3C78C5"/>
<stop offset="0.863281" stop-color="#3C77C5"/>
<stop offset="0.867188" stop-color="#3C77C5"/>
<stop offset="0.871094" stop-color="#3D76C4"/>
<stop offset="0.875" stop-color="#3D75C4"/>
<stop offset="0.878906" stop-color="#3D75C4"/>
<stop offset="0.882812" stop-color="#3E74C3"/>
<stop offset="0.886719" stop-color="#3E74C3"/>
<stop offset="0.890625" stop-color="#3E73C2"/>
<stop offset="0.894531" stop-color="#3F72C2"/>
<stop offset="0.898438" stop-color="#3F72C2"/>
<stop offset="0.902344" stop-color="#3F71C1"/>
<stop offset="0.90625" stop-color="#4071C1"/>
<stop offset="0.910156" stop-color="#4070C1"/>
<stop offset="0.914062" stop-color="#406FC0"/>
<stop offset="0.917969" stop-color="#416FC0"/>
<stop offset="0.921875" stop-color="#416EBF"/>
<stop offset="0.925781" stop-color="#416DBF"/>
<stop offset="0.929688" stop-color="#426DBF"/>
<stop offset="0.933594" stop-color="#426CBE"/>
<stop offset="0.9375" stop-color="#426CBE"/>
<stop offset="0.941406" stop-color="#436BBE"/>
<stop offset="0.945312" stop-color="#436ABD"/>
<stop offset="0.949219" stop-color="#446ABD"/>
<stop offset="0.953125" stop-color="#4469BC"/>
<stop offset="0.957031" stop-color="#4469BC"/>
<stop offset="0.960938" stop-color="#4568BC"/>
<stop offset="0.964844" stop-color="#4567BB"/>
<stop offset="0.96875" stop-color="#4567BB"/>
<stop offset="0.972656" stop-color="#4666BB"/>
<stop offset="0.976562" stop-color="#4666BA"/>
<stop offset="0.980469" stop-color="#4665BA"/>
<stop offset="0.984375" stop-color="#4764B9"/>
<stop offset="0.988281" stop-color="#4764B9"/>
<stop offset="0.992188" stop-color="#4763B9"/>
<stop offset="0.996094" stop-color="#4863B8"/>
<stop offset="1" stop-color="#4862B8"/>
</linearGradient>
<clipPath id="clip0_5190_11112">
<rect width="643.2" height="489" fill="white" transform="translate(262 177)"/>
</clipPath>
</defs>
</svg>
